<svg preserveAspectRatio="none" id="visual" viewBox="0 0 1920 924" width="1920" height="924" xmlns="http://www.w3.org/2000/svg" xmlns:xlink="http://www.w3.org/1999/xlink" version="1.1">
    <path d="M0 920L40 920.3C80 920.7 160 921.3 240 910.8C320 900.3 400 878.7 480 879C560 879.3 640 901.7 720 913.5C800 925.3 880 926.7 960 914.3C1040 902 1120 876 1200 849.3C1280 822.7 1360 795.3 1440 785.8C1520 776.3 1600 784.7 1680 796.3C1760 808 1840 823 1880 830.5L1920 838L1920 0L1880 0C1840 0 1760 0 1680 0C1600 0 1520 0 1440 0C1360 0 1280 0 1200 0C1120 0 1040 0 960 0C880 0 800 0 720 0C640 0 560 0 480 0C400 0 320 0 240 0C160 0 80 0 40 0L0 0Z" fill="#1c307a"></path>
    <path d="M0 569L40 588.2C80 607.3 160 645.7 240 678C320 710.3 400 736.7 480 749C560 761.3 640 759.7 720 730.3C800 701 880 644 960 649.3C1040 654.7 1120 722.3 1200 756.8C1280 791.3 1360 792.7 1440 785.8C1520 779 1600 764 1680 764.3C1760 764.7 1840 780.3 1880 788.2L1920 796L1920 0L1880 0C1840 0 1760 0 1680 0C1600 0 1520 0 1440 0C1360 0 1280 0 1200 0C1120 0 1040 0 960 0C880 0 800 0 720 0C640 0 560 0 480 0C400 0 320 0 240 0C160 0 80 0 40 0L0 0Z" fill="#162b67"></path>
    <path d="M0 561L40 564C80 567 160 573 240 574.7C320 576.3 400 573.7 480 560C560 546.3 640 521.7 720 500.8C800 480 880 463 960 459.7C1040 456.3 1120 466.7 1200 472C1280 477.3 1360 477.7 1440 507.3C1520 537 1600 596 1680 606.3C1760 616.7 1840 578.3 1880 559.2L1920 540L1920 0L1880 0C1840 0 1760 0 1680 0C1600 0 1520 0 1440 0C1360 0 1280 0 1200 0C1120 0 1040 0 960 0C880 0 800 0 720 0C640 0 560 0 480 0C400 0 320 0 240 0C160 0 80 0 40 0L0 0Z" fill="#122555"></path>
    <path d="M0 483L40 460.7C80 438.3 160 393.7 240 366.7C320 339.7 400 330.3 480 328C560 325.7 640 330.3 720 333.2C800 336 880 337 960 339.2C1040 341.3 1120 344.7 1200 357.5C1280 370.3 1360 392.7 1440 415.8C1520 439 1600 463 1680 469.3C1760 475.7 1840 464.3 1880 458.7L1920 453L1920 0L1880 0C1840 0 1760 0 1680 0C1600 0 1520 0 1440 0C1360 0 1280 0 1200 0C1120 0 1040 0 960 0C880 0 800 0 720 0C640 0 560 0 480 0C400 0 320 0 240 0C160 0 80 0 40 0L0 0Z" fill="#101f43"></path>
    <path d="M0 305L40 310.7C80 316.3 160 327.7 240 326.3C320 325 400 311 480 298C560 285 640 273 720 279.3C800 285.7 880 310.3 960 300.7C1040 291 1120 247 1200 239.7C1280 232.3 1360 261.7 1440 269C1520 276.3 1600 261.7 1680 263.2C1760 264.7 1840 282.3 1880 291.2L1920 300L1920 0L1880 0C1840 0 1760 0 1680 0C1600 0 1520 0 1440 0C1360 0 1280 0 1200 0C1120 0 1040 0 960 0C880 0 800 0 720 0C640 0 560 0 480 0C400 0 320 0 240 0C160 0 80 0 40 0L0 0Z" fill="#0f1831"></path>
    <path d="M0 107L40 123.7C80 140.3 160 173.7 240 174.8C320 176 400 145 480 136.5C560 128 640 142 720 154.7C800 167.3 880 178.7 960 168.2C1040 157.7 1120 125.3 1200 106.3C1280 87.3 1360 81.7 1440 97C1520 112.3 1600 148.7 1680 171C1760 193.3 1840 201.7 1880 205.8L1920 210L1920 0L1880 0C1840 0 1760 0 1680 0C1600 0 1520 0 1440 0C1360 0 1280 0 1200 0C1120 0 1040 0 960 0C880 0 800 0 720 0C640 0 560 0 480 0C400 0 320 0 240 0C160 0 80 0 40 0L0 0Z" fill="#0d1120"></path>
</svg>